<svg xmlns="http://www.w3.org/2000/svg" version="1.1" xmlns:xlink="http://www.w3.org/1999/xlink" xmlns:svgjs="http://svgjs.dev/svgjs" width="1000" height="1000" viewBox="0 0 1000 1000"><rect width="1000" height="1000" fill="#ffffff"></rect><g transform="matrix(0.7,0,0,0.7,149.57575757575756,457.32870093754354)"><svg viewBox="0 0 396 49" data-background-color="#ffffff" preserveAspectRatio="xMidYMid meet" height="123" width="1000" xmlns="http://www.w3.org/2000/svg" xmlns:xlink="http://www.w3.org/1999/xlink"><g id="tight-bounds" transform="matrix(1,0,0,1,0.2400000000000091,-0.21552085876464844)"><svg viewBox="0 0 395.52 49.431039938739055" height="49.431039938739055" width="395.52"><rect width="395.5199890136719" height="49.4310417175293" fill="url(#e327876e-4dab-4827-8d03-a7b3227ee04c)" mask="url(&quot;#10baa3e3-0e56-4c5a-b76e-106de097d8ff&quot;)" data-fill-palette-color="accent"></rect><rect width="395.5199890136719" height="49.4310417175293" fill="url(#96e020df-6027-43f7-a81e-aaf738a486e2)" mask="url(&quot;#6818f384-6ef5-419b-baa1-a4e36016939c&quot;)" data-fill-palette-color="primary"></rect><g><svg viewBox="0 0 493.98200248916805 61.73655970383384" height="49.431039938739055" width="395.52"><g><rect width="4.0285576456015555" height="44.89525506682561" x="83.88748242052581" y="8.420652318504114" fill="#ffa62e" opacity="1" stroke-width="0" stroke="transparent" fill-opacity="1" class="rect-o-0" data-fill-palette-color="secondary" rx="1%" id="o-0" data-palette-color="#ffa62e"></rect></g><g transform="matrix(1,0,0,1,98.46200248916809,8.532332057476314)"><svg viewBox="0 0 395.5199999999999 44.67189558888121" height="44.67189558888121" width="395.5199999999999"><g id="textblocktransform"><svg viewBox="0 0 395.5199999999999 44.67189558888121" height="44.67189558888121" width="395.5199999999999" id="textblock"><g><svg viewBox="0 0 395.5199999999999 44.67189558888121" height="44.67189558888121" width="395.5199999999999"><g transform="matrix(1,0,0,1,0,0)"><svg width="395.5199999999999" viewBox="1.9300000667572021 -42.189998626708984 389.07000732421875 43.94999694824219" height="44.67189558888121" data-palette-color="url(#96e020df-6027-43f7-a81e-aaf738a486e2)"></svg></g></svg></g></svg></g></svg></g><g><svg viewBox="0 0 73.3415199974851 61.73655970383384" height="61.73655970383384" width="73.3415199974851"><g><svg xmlns="http://www.w3.org/2000/svg" xmlns:xlink="http://www.w3.org/1999/xlink" version="1.1" x="8" y="0" viewBox="8.299999237060547 5.099999904632568 83.5 89.9000015258789" enable-background="new 0 0 100 100" xml:space="preserve" height="61.73655970383384" width="57.34151999748509" class="icon-icon-0" data-fill-palette-color="accent" id="icon-0"></svg></g></svg></g></svg></g><defs></defs><mask id="6818f384-6ef5-419b-baa1-a4e36016939c"><g id="SvgjsG2599"><svg viewBox="0 0 395.52 49.431039938739055" height="49.431039938739055" width="395.52"><g><svg viewBox="0 0 493.98200248916805 61.73655970383384" height="49.431039938739055" width="395.52"><g></g><g transform="matrix(1,0,0,1,98.46200248916809,8.532332057476314)"><svg viewBox="0 0 395.5199999999999 44.67189558888121" height="44.67189558888121" width="395.5199999999999"><g id="SvgjsG2597"><svg viewBox="0 0 395.5199999999999 44.67189558888121" height="44.67189558888121" width="395.5199999999999" id="SvgjsSvg2596"><g><svg viewBox="0 0 395.5199999999999 44.67189558888121" height="44.67189558888121" width="395.5199999999999"><g transform="matrix(1,0,0,1,0,0)"><svg width="395.5199999999999" viewBox="1.9300000667572021 -42.189998626708984 389.07000732421875 43.94999694824219" height="44.67189558888121" data-palette-color="url(#96e020df-6027-43f7-a81e-aaf738a486e2)"><path d="M40.65-10.55L21.39-10.55 24.29-12.3 40.65-12.3 40.65-10.55ZM40.65-7.03L15.63-7.03 18.58-8.79 40.65-8.79 40.65-7.03ZM40.65-3.52L9.79-3.52 12.77-5.27 40.65-5.27 40.65-3.52ZM1.93-29.88L21.19-29.88 18.29-28.13 1.93-28.13 1.93-29.88ZM1.93-33.4L26.95-33.4 24-31.64 1.93-31.64 1.93-33.4ZM1.93-36.91L32.79-36.91 29.81-35.16 1.93-35.16 1.93-36.91ZM1.93-10.28L40.65-36.3 40.65-34.25 1.93-8.23 1.93-10.28ZM1.93-6.18L40.65-32.15 40.65-30.08 1.93-4.08 1.93-6.18ZM1.93-2.08L40.65-28.03 40.65-25.98 4.54-1.76 40.65-1.76 40.65 0 1.93 0Q1.93 0 1.93-2.08L1.93-2.08ZM1.93-14.4L38.04-38.67 1.93-38.67 1.93-40.43 40.65-40.43Q40.65-40.43 40.65-38.33L40.65-38.33 1.93-12.38 1.93-14.4ZM59.2-27.05Q56.37-24.22 56.37-20.21 56.37-16.21 59.2-13.38 62.03-10.55 66.04-10.55 70.04-10.55 72.87-13.38 75.71-16.21 75.71-20.21 75.71-24.22 72.87-27.05 70.04-29.88 66.04-29.88 62.03-29.88 59.2-27.05ZM55.52-15.78Q54.61-17.9 54.61-20.21 54.61-22.53 55.52-24.65 56.42-26.76 57.96-28.3 59.49-29.83 61.61-30.74 63.72-31.64 66.04-31.64 68.36-31.64 70.47-30.74 72.58-29.83 74.12-28.3 75.66-26.76 76.56-24.65 77.46-22.53 77.46-20.21 77.46-17.9 76.56-15.78 75.66-13.67 74.12-12.13 72.58-10.6 70.47-9.69 68.36-8.79 66.04-8.79 63.72-8.79 61.61-9.69 59.49-10.6 57.96-12.13 56.42-13.67 55.52-15.78ZM54.62-26.83Q52.85-23.8 52.85-20.21 52.85-16.63 54.62-13.6 56.39-10.57 59.42-8.8 62.45-7.03 66.04-7.03 69.63-7.03 72.65-8.8 75.68-10.57 77.45-13.6 79.22-16.63 79.22-20.21 79.22-23.8 77.45-26.83 75.68-29.86 72.65-31.63 69.63-33.4 66.04-33.4 62.45-33.4 59.42-31.63 56.39-29.86 54.62-26.83ZM53.1-12.72Q51.1-16.16 51.1-20.21 51.1-24.27 53.1-27.71 55.1-31.15 58.54-33.15 61.98-35.16 66.04-35.16 70.09-35.16 73.53-33.15 76.98-31.15 78.98-27.71 80.98-24.27 80.98-20.21 80.98-16.16 78.98-12.72 76.98-9.28 73.53-7.28 70.09-5.27 66.04-5.27 61.98-5.27 58.54-7.28 55.1-9.28 53.1-12.72ZM50.66-26.71Q49.34-23.61 49.34-20.21 49.34-16.82 50.66-13.72 51.98-10.62 54.21-8.39 56.44-6.15 59.54-4.83 62.64-3.52 66.04-3.52 69.43-3.52 72.53-4.83 75.63-6.15 77.87-8.39 80.1-10.62 81.42-13.72 82.74-16.82 82.74-20.21 82.74-23.61 81.42-26.71 80.1-29.81 77.87-32.04 75.63-34.28 72.53-35.6 69.43-36.91 66.04-36.91 62.64-36.91 59.54-35.6 56.44-34.28 54.21-32.04 51.98-29.81 50.66-26.71ZM50.06-10.96Q47.58-15.21 47.58-20.21 47.58-25.22 50.06-29.47 52.54-33.72 56.78-36.19 61.03-38.67 66.04-38.67 71.04-38.67 75.29-36.19 79.54-33.72 82.02-29.47 84.49-25.22 84.49-20.21 84.49-15.21 82.02-10.96 79.54-6.71 75.29-4.24 71.04-1.76 66.04-1.76 61.03-1.76 56.78-4.24 52.54-6.71 50.06-10.96ZM47.42-28.06Q45.82-24.32 45.82-20.21 45.82-16.11 47.42-12.37 49.02-8.62 51.73-5.91 54.44-3.2 58.19-1.6 61.94 0 66.04 0 70.14 0 73.89-1.6 77.63-3.2 80.34-5.91 83.05-8.62 84.65-12.37 86.25-16.11 86.25-20.21 86.25-24.32 84.65-28.06 83.05-31.81 80.34-34.52 77.63-37.23 73.89-38.83 70.14-40.43 66.04-40.43 61.94-40.43 58.19-38.83 54.44-37.23 51.73-34.52 49.02-31.81 47.42-28.06ZM45.81-11.68Q44.06-15.75 44.06-20.21 44.06-24.68 45.81-28.75 47.56-32.81 50.5-35.75 53.44-38.7 57.5-40.44 61.57-42.19 66.04-42.19 70.51-42.19 74.57-40.44 78.64-38.7 81.58-35.75 84.52-32.81 86.26-28.75 88.01-24.68 88.01-20.21 88.01-15.75 86.26-11.68 84.52-7.62 81.58-4.68 78.64-1.73 74.57 0.01 70.51 1.76 66.04 1.76 61.57 1.76 57.5 0.01 53.44-1.73 50.5-4.68 47.56-7.62 45.81-11.68ZM120.36-40.43L120.36-19.46 118.6-22.36 118.6-40.43 120.36-40.43ZM123.87-40.43L123.87-13.7 122.11-16.65 122.11-40.43 123.87-40.43ZM127.39-40.43L127.39-7.86 125.63-10.84 125.63-40.43 127.39-40.43ZM102.19 0L102.19-20.97 103.95-18.07 103.95 0 102.19 0ZM98.68 0L98.68-26.73 100.43-23.78 100.43 0 98.68 0ZM95.16 0L95.16-32.57 96.92-29.59 96.92 0 95.16 0ZM120.62 0L95.77-40.43 97.82-40.43 122.68 0 120.62 0ZM124.73 0L99.92-40.43 102-40.43 126.83 0 124.73 0ZM128.83 0L104.05-40.43 106.1-40.43 129.15-2.86 129.15-40.43 130.9-40.43 130.9 0Q130.9 0 128.83 0L128.83 0ZM116.5 0L93.4-37.57 93.4 0 91.65 0 91.65-40.43Q91.65-40.43 93.75-40.43L93.75-40.43 118.53 0 116.5 0ZM144.33-40.43L144.33 0 142.57 0 142.57-40.43 144.33-40.43ZM140.81-40.43L140.81 0 139.06 0 139.06-40.43 140.81-40.43ZM137.3-40.43L137.3 0 135.54 0 135.54-40.43 137.3-40.43ZM147.84-15.82L147.84-8.79 166.55-8.79 166.55-7.03 147.84-7.03 147.84-5.27 166.55-5.27 166.55-3.52 147.84-3.52 147.84-1.76 166.55-1.76 166.55 0 146.09 0 146.09-40.43 166.55-40.43 166.55-38.67 147.84-38.67 147.84-36.91 166.55-36.91 166.55-35.16 147.84-35.16 147.84-33.4 166.55-33.4 166.55-31.64 147.84-31.64 147.84-24.61 157.44-24.61 157.44-22.85 147.84-22.85 147.84-21.09 157.44-21.09 157.44-19.34 147.84-19.34 147.84-17.58 157.44-17.58 157.44-15.82 147.84-15.82ZM203.16 0L203.16-21.12 204.92-21.12 204.92 0 203.16 0ZM210.2 0L210.2-21.12 211.95-21.12 211.95 0 210.2 0ZM206.68 0L206.68-21.12 208.44-21.12 208.44 0 206.68 0ZM199.65-21.12L201.41-21.12 201.41 0Q196.77 1.76 191.79 1.76L191.79 1.76Q187.47 1.76 183.51 0.17 179.56-1.42 176.55-4.24 173.55-7.06 171.76-11.22 169.96-15.38 169.96-20.21L169.96-20.21Q169.96-24.68 171.71-28.75 173.45-32.81 176.39-35.75 179.34-38.7 183.4-40.44 187.47-42.19 191.93-42.19L191.93-42.19Q197.5-42.19 202.28-39.6 207.07-37.01 210.1-32.57L210.1-32.57 208.63-31.62Q205.85-35.69 201.44-38.06 197.04-40.43 191.93-40.43L191.93-40.43Q187.83-40.43 184.08-38.83 180.34-37.23 177.63-34.52 174.92-31.81 173.32-28.06 171.72-24.32 171.72-20.21L171.72-20.21Q171.72-15.8 173.37-11.96 175.01-8.13 177.76-5.54 180.51-2.95 184.15-1.48 187.78 0 191.71 0L191.71 0Q195.84 0 199.65-1.29L199.65-1.29 199.65-2.98Q196.01-1.76 192.01-1.76L192.01-1.76Q189.1-1.76 186.35-2.58 183.61-3.39 181.28-4.99 178.95-6.59 177.2-8.8 175.45-11.01 174.47-13.95 173.48-16.89 173.48-20.21L173.48-20.21Q173.48-25.22 175.95-29.47 178.43-33.72 182.68-36.19 186.93-38.67 191.93-38.67L191.93-38.67Q196.62-38.67 200.65-36.49 204.68-34.3 207.22-30.57L207.22-30.57 205.75-29.61Q203.46-32.98 199.81-34.95 196.16-36.91 191.93-36.91L191.93-36.91Q188.54-36.91 185.44-35.6 182.34-34.28 180.1-32.04 177.87-29.81 176.55-26.71 175.23-23.61 175.23-20.21L175.23-20.21Q175.23-17.16 176.13-14.49 177.02-11.82 178.59-9.83 180.17-7.84 182.27-6.41 184.37-4.98 186.84-4.25 189.32-3.52 191.93-3.52L191.93-3.52Q195.99-3.52 199.65-4.88L199.65-4.88 199.65-6.64Q196.03-5.25 192.1-5.25L192.1-5.25Q189.13-5.25 186.42-6.26 183.71-7.28 181.59-9.13 179.48-10.99 178.24-13.87 176.99-16.75 176.99-20.21L176.99-20.21Q176.99-24.27 178.99-27.71 181-31.15 184.44-33.15 187.88-35.16 191.93-35.16L191.93-35.16Q195.72-35.16 198.98-33.4 202.24-31.64 204.29-28.61L204.29-28.61 202.82-27.66Q201.02-30.3 198.15-31.85 195.28-33.4 191.93-33.4L191.93-33.4Q188.34-33.4 185.32-31.63 182.29-29.86 180.52-26.83 178.75-23.8 178.75-20.21L178.75-20.21Q178.75-17.72 179.46-15.58 180.17-13.43 181.41-11.87 182.66-10.3 184.33-9.2 186-8.11 187.93-7.56 189.86-7.01 191.93-7.01L191.93-7.01Q196.06-7.01 199.65-8.64L199.65-8.64 199.65-10.33Q196.18-8.79 192.15-8.79L192.15-8.79Q189.83-8.79 187.78-9.5 185.73-10.21 184.08-11.57 182.44-12.94 181.47-15.17 180.51-17.41 180.51-20.21L180.51-20.21Q180.51-22.53 181.41-24.65 182.31-26.76 183.85-28.3 185.39-29.83 187.5-30.74 189.61-31.64 191.93-31.64L191.93-31.64Q194.84-31.64 197.33-30.29 199.82-28.93 201.38-26.61L201.38-26.61 199.94-25.66Q198.62-27.61 196.51-28.75 194.4-29.88 191.93-29.88L191.93-29.88Q187.93-29.88 185.1-27.05 182.27-24.22 182.27-20.21L182.27-20.21Q182.27-17.75 183.07-15.86 183.88-13.96 185.28-12.83 186.68-11.69 188.41-11.12 190.13-10.55 192.1-10.55L192.1-10.55Q196.16-10.55 199.65-12.23L199.65-12.23 199.65-21.12ZM244.74-17.77L244.74-17.77 244.74-40.43 246.5-40.43 246.5-17.77Q246.5-14.06 243.57-11.43 240.64-8.79 236.54-8.79 232.43-8.79 229.5-11.43 226.57-14.06 226.57-17.77L226.57-17.77 226.57-40.43 228.33-40.43 228.33-17.77Q228.33-14.79 230.74-12.67 233.14-10.55 236.54-10.55 239.93-10.55 242.33-12.67 244.74-14.79 244.74-17.77ZM248.25-17.77L248.25-17.77 248.25-40.43 250.01-40.43 250.01-17.77Q250.01-15.23 248.94-12.93 247.86-10.62 246.06-8.94 244.25-7.25 241.76-6.26 239.27-5.27 236.54-5.27 233.8-5.27 231.31-6.26 228.82-7.25 227.01-8.94 225.21-10.62 224.13-12.93 223.06-15.23 223.06-17.77L223.06-17.77 223.06-40.43 224.82-40.43 224.82-17.77Q224.82-14.87 226.39-12.39 227.97-9.91 230.66-8.47 233.36-7.03 236.54-7.03 239.71-7.03 242.41-8.47 245.1-9.91 246.68-12.39 248.25-14.87 248.25-17.77ZM251.77-17.77L251.77-17.77 251.77-40.43 253.53-40.43 253.53-17.77Q253.53-14.53 252.17-11.56 250.82-8.59 248.55-6.45 246.28-4.3 243.13-3.03 239.98-1.76 236.54-1.76 233.09-1.76 229.94-3.03 226.79-4.3 224.52-6.45 222.25-8.59 220.9-11.56 219.54-14.53 219.54-17.77L219.54-17.77 219.54-40.43 221.3-40.43 221.3-17.77Q221.3-13.92 223.35-10.63 225.4-7.35 228.91-5.43 232.41-3.52 236.54-3.52 240.66-3.52 244.16-5.43 247.67-7.35 249.72-10.63 251.77-13.92 251.77-17.77ZM255.29-17.77L255.29-17.77 255.29-40.43 257.04-40.43 257.04-17.77Q257.04-12.5 254.28-8 251.53-3.49 246.8-0.87 242.08 1.76 236.54 1.76 230.99 1.76 226.27-0.87 221.55-3.49 218.79-8 216.03-12.5 216.03-17.77L216.03-17.77 216.03-40.43 217.79-40.43 217.79-17.77Q217.79-14.18 219.27-10.89 220.76-7.59 223.28-5.21 225.79-2.83 229.27-1.42 232.75 0 236.54 0 240.32 0 243.8-1.42 247.28-2.83 249.79-5.21 252.31-7.59 253.8-10.89 255.29-14.18 255.29-17.77ZM286.41-11.87L278.99-11.87 279.7-13.62 285.7-13.62 286.41-11.87ZM287.83-8.35L277.62-8.35 278.31-10.11 287.07-10.11 287.83-8.35ZM289.19-4.83L276.25-4.83 276.94-6.59 288.46-6.59 289.19-4.83ZM277.01-38.06L261.97 0 260.07 0 276.06-40.43 277.96-40.43 293.93 0 292.05 0 277.01-38.06ZM263.85 0L277.23-33.89 278.23-31.64 265.73 0 263.85 0ZM267.64 0L279.18-29.25 280.11-26.83 269.54 0 267.64 0ZM271.42 0L281.04-24.41 281.97-21.95 273.3 0 271.42 0ZM289.29-40.43L305.28 0 303.38 0 287.41-40.43 289.29-40.43ZM283.63-40.43L285.51-40.43 301.5 0 299.62 0 283.63-40.43ZM279.84-40.43L281.72-40.43 297.71 0 295.81 0 279.84-40.43ZM321.64-18.36L321.64-20.12 332.23-20.12Q334.65-20.12 336.32-21.68 338-23.24 338-26.12L338-26.12Q338-28.25 336.24-29.94 334.48-31.64 332.23-31.64L332.23-31.64 317.15-31.64 317.15 0 315.39 0 315.39-33.4 332.23-33.4Q335.21-33.4 337.48-31.19 339.75-28.98 339.75-26.12L339.75-26.12Q339.75-22.61 337.56-20.48 335.36-18.36 332.23-18.36L332.23-18.36 321.64-18.36ZM321.64-14.84L321.64-16.6 332.23-16.6Q336.04-16.6 338.78-19.27 341.51-21.95 341.51-26.12L341.51-26.12Q341.51-29.71 338.72-32.43 335.92-35.16 332.23-35.16L332.23-35.16 313.63-35.16 313.63 0 311.87 0 311.87-36.91 332.23-36.91Q335.14-36.91 337.69-35.42 340.24-33.94 341.75-31.43 343.27-28.93 343.27-26.12L343.27-26.12Q343.27-21.31 340.01-18.08 336.75-14.84 332.23-14.84L332.23-14.84 321.64-14.84ZM321.64-11.33L321.64-13.09 332.23-13.09Q335.65-13.09 338.58-14.77 341.51-16.46 343.27-19.47 345.03-22.49 345.03-26.12L345.03-26.12Q345.03-29.42 343.28-32.31 341.54-35.21 338.58-36.94 335.63-38.67 332.23-38.67L332.23-38.67 310.11-38.67 310.11 0 308.36 0 308.36-40.43 332.23-40.43Q336.07-40.43 339.44-38.46 342.8-36.5 344.79-33.19 346.78-29.88 346.78-26.12L346.78-26.12Q346.78-21.78 344.92-18.48 343.05-15.19 339.85-13.33L339.85-13.33 344.39 0 342.54 0 338.19-12.5Q337.21-12.11 336.7-11.96L336.7-11.96 340.78 0 338.92 0 334.94-11.55Q334.72-11.5 333.38-11.38L333.38-11.38 337.17 0 335.31 0 331.57-11.33 329.99-11.33 333.55 0 331.7 0 328.11-11.33 321.64-11.33ZM320.66-28.13L320.66 0 318.9 0 318.9-29.88 332.23-29.88Q333.87-29.88 335.05-28.77 336.24-27.66 336.24-26.12L336.24-26.12Q336.24-21.88 332.23-21.88L332.23-21.88 321.64-21.88 321.64-23.63 332.23-23.63Q333.28-23.63 333.88-24.18 334.48-24.73 334.48-26.12L334.48-26.12Q334.48-26.98 333.83-27.55 333.19-28.13 332.23-28.13L332.23-28.13 320.66-28.13ZM373.08-10.55L361.09-10.55 361.09-29.88Q361.09-29.88 373.08-29.88L373.08-29.88Q375.98-29.88 378.07-27.04 380.16-24.19 380.16-20.21L380.16-20.21Q380.16-16.21 378.07-13.38 375.98-10.55 373.08-10.55L373.08-10.55ZM362.85-28.13L362.85-12.3 373.08-12.3Q375.25-12.3 376.8-14.62 378.35-16.94 378.35-20.21L378.35-20.21Q378.35-23.51 376.8-25.82 375.25-28.13 373.08-28.13L373.08-28.13 362.85-28.13ZM359.33-31.64L359.33-8.79 373.08-8.79Q376.71-8.79 379.34-12.15 381.96-15.5 381.96-20.21L381.96-20.21Q381.96-23.32 380.75-25.95 379.55-28.59 377.51-30.11 375.47-31.64 373.08-31.64L373.08-31.64 359.33-31.64ZM373.08-7.03L357.57-7.03 357.57-33.4 373.08-33.4Q375.93-33.4 378.4-31.64 380.86-29.88 382.32-26.84 383.77-23.8 383.77-20.21L383.77-20.21Q383.77-16.65 382.32-13.6 380.86-10.55 378.4-8.79 375.93-7.03 373.08-7.03L373.08-7.03ZM355.81-35.16L355.81-5.27 373.08-5.27Q376.42-5.27 379.29-7.28 382.16-9.28 383.87-12.72 385.58-16.16 385.58-20.21L385.58-20.21Q385.58-24.24 383.87-27.7 382.16-31.15 379.28-33.15 376.4-35.16 373.08-35.16L373.08-35.16 355.81-35.16ZM373.08-3.52L354.06-3.52 354.06-36.91 373.08-36.91Q376.88-36.91 380.18-34.68 383.48-32.45 385.43-28.59 387.38-24.73 387.38-20.21 387.38-15.7 385.43-11.84 383.48-7.98 380.18-5.75 376.88-3.52 373.08-3.52L373.08-3.52ZM352.3-38.67L352.3-1.76 373.08-1.76Q376.27-1.76 379.25-3.22 382.23-4.69 384.4-7.15 386.58-9.62 387.88-13.05 389.19-16.48 389.19-20.21 389.19-23.95 387.88-27.37 386.58-30.79 384.4-33.26 382.23-35.74 379.25-37.21 376.27-38.67 373.08-38.67L373.08-38.67 352.3-38.67ZM373.08 0L373.08 0 350.54 0 350.54-40.43 373.08-40.43Q377.84-40.43 381.96-37.72 386.09-35.01 388.54-30.35 391-25.68 391-20.21L391-20.21Q391-16.11 389.54-12.37 388.09-8.62 385.67-5.91 383.26-3.2 379.95-1.6 376.64 0 373.08 0Z" opacity="1" transform="matrix(1,0,0,1,0,0)" fill="white" class="wordmark-text-0" id="SvgjsPath2595"></path></svg></g></svg></g></svg></g></svg></g><g><svg viewBox="0 0 73.3415199974851 61.73655970383384" height="61.73655970383384" width="73.3415199974851"><g><svg xmlns="http://www.w3.org/2000/svg" xmlns:xlink="http://www.w3.org/1999/xlink" version="1.1" x="8" y="0" viewBox="8.299999237060547 5.099999904632568 83.5 89.9000015258789" enable-background="new 0 0 100 100" xml:space="preserve" height="61.73655970383384" width="57.34151999748509" class="icon-icon-0" data-fill-palette-color="accent" id="SvgjsSvg2594"></svg></g></svg></g></svg></g><defs></defs></svg></g></mask><linearGradient x1="0" x2="1" y1="0.5" y2="0.5" id="96e020df-6027-43f7-a81e-aaf738a486e2"><stop stop-color="#ffa62e" offset="0"></stop><stop stop-color="#f71b3d" offset="1"></stop></linearGradient><mask id="10baa3e3-0e56-4c5a-b76e-106de097d8ff"><g id="SvgjsG2609"><svg viewBox="0 0 395.52 49.431039938739055" height="49.431039938739055" width="395.52"><g><svg viewBox="0 0 493.98200248916805 61.73655970383384" height="49.431039938739055" width="395.52"><g></g><g transform="matrix(1,0,0,1,98.46200248916809,8.532332057476314)"><svg viewBox="0 0 395.5199999999999 44.67189558888121" height="44.67189558888121" width="395.5199999999999"><g id="SvgjsG2607"><svg viewBox="0 0 395.5199999999999 44.67189558888121" height="44.67189558888121" width="395.5199999999999" id="SvgjsSvg2606"><g><svg viewBox="0 0 395.5199999999999 44.67189558888121" height="44.67189558888121" width="395.5199999999999"><g transform="matrix(1,0,0,1,0,0)"><svg width="395.5199999999999" viewBox="1.9300000667572021 -42.189998626708984 389.07000732421875 43.94999694824219" height="44.67189558888121" data-palette-color="url(#96e020df-6027-43f7-a81e-aaf738a486e2)"></svg></g></svg></g></svg></g></svg></g><g><svg viewBox="0 0 73.3415199974851 61.73655970383384" height="61.73655970383384" width="73.3415199974851"><g><svg xmlns="http://www.w3.org/2000/svg" xmlns:xlink="http://www.w3.org/1999/xlink" version="1.1" x="8" y="0" viewBox="8.299999237060547 5.099999904632568 83.5 89.9000015258789" enable-background="new 0 0 100 100" xml:space="preserve" height="61.73655970383384" width="57.34151999748509" class="icon-icon-0" data-fill-palette-color="accent" id="SvgjsSvg2605"><g fill="white"><path fill="white" d="M87.7 43.8c-0.3 0-0.7 0-1.1 0-4.9 0-9.9-2.6-13.2-4.8-1.7-1.1-3.6-1.9-5.5-2.2V14.9c0-1.6-1.3-2.9-2.9-2.9H51.3v-5c0-1.1-0.9-1.9-1.9-1.9H26.8c-1.1 0-1.9 0.9-1.9 1.9v5H11.2c-1.6 0-2.9 1.3-2.9 2.9v74.2c0 1.6 1.3 2.9 2.9 2.9h20.9V74.5h5.9V92h1.1V74.5h2.2c1 2.5 2.2 4.8 3.7 7V92H56c2.7 1.7 5.8 2.9 9.1 3l0.1 0 0.1 0c8.2-0.2 15.3-7.5 18.7-11.8 5.1-6.4 7.8-14.9 7.8-24.4V47.6v-4L87.7 43.8zM33.6 34.1v-9.8h4.3v9.8H33.6zM37.9 44.5v9.8h-4.3v-9.8H37.9zM43.4 34.1h-4.3v-9.8h4.3V34.1zM57.5 24.3h4.3v9.8h-4.3V24.3zM51.9 24.3h4.3v9.8h-4.3V24.3zM19.6 76.2h-4.3v-9.8h4.3V76.2zM19.6 54.4h-4.3v-9.8h4.3V54.4zM19.6 34.1h-4.3v-9.8h4.3V34.1zM25.1 76.2h-4.3v-9.8h4.3V76.2zM25.1 54.4h-4.3v-9.8h4.3V54.4zM25.1 34.1h-4.3v-9.8h4.3V34.1zM30.5 72.6v-3.7h9.1c0.3 1.2 0.6 2.5 1 3.7H30.5zM88 58.8c0 8-2 15.8-7 22-4 5-9.9 10.3-15.9 10.4-6-0.1-11.9-5.4-15.9-10.4-5-6.3-7-14-7-22V47.6c0.5 0 0.9 0.1 1.4 0.1 5.7 0 11.3-2.8 15.3-5.5 1.9-1.3 4.1-1.9 6.2-1.9 2.2 0 4.3 0.6 6.2 1.9 4 2.7 9.6 5.5 15.3 5.5 0.5 0 0.9 0 1.4-0.1V58.8z"></path><path fill="white" d="M60.1 48.4c-9.7 5-12.6 4.3-12.6 4.3v12.5h17.6V46.9C62.6 46.9 61.4 47.8 60.1 48.4z"></path><path fill="white" d="M65.1 86.6c17-7.2 17.6-21.3 17.6-21.3H65.1V86.6z"></path></g></svg></g></svg></g></svg></g><defs></defs><mask><g id="SvgjsG2604"><svg viewBox="0 0 395.52 49.431039938739055" height="49.431039938739055" width="395.52"><g><svg viewBox="0 0 493.98200248916805 61.73655970383384" height="49.431039938739055" width="395.52"><g></g><g transform="matrix(1,0,0,1,98.46200248916809,8.532332057476314)"><svg viewBox="0 0 395.5199999999999 44.67189558888121" height="44.67189558888121" width="395.5199999999999"><g id="SvgjsG2603"><svg viewBox="0 0 395.5199999999999 44.67189558888121" height="44.67189558888121" width="395.5199999999999" id="SvgjsSvg2602"><g><svg viewBox="0 0 395.5199999999999 44.67189558888121" height="44.67189558888121" width="395.5199999999999"><g transform="matrix(1,0,0,1,0,0)"><svg width="395.5199999999999" viewBox="1.9300000667572021 -42.189998626708984 389.07000732421875 43.94999694824219" height="44.67189558888121" data-palette-color="url(#96e020df-6027-43f7-a81e-aaf738a486e2)"></svg></g></svg></g></svg></g></svg></g><g><svg viewBox="0 0 73.3415199974851 61.73655970383384" height="61.73655970383384" width="73.3415199974851"><g><svg xmlns="http://www.w3.org/2000/svg" xmlns:xlink="http://www.w3.org/1999/xlink" version="1.1" x="8" y="0" viewBox="8.299999237060547 5.099999904632568 83.5 89.9000015258789" enable-background="new 0 0 100 100" xml:space="preserve" height="61.73655970383384" width="57.34151999748509" class="icon-icon-0" data-fill-palette-color="accent" id="SvgjsSvg2600"></svg></g></svg></g></svg></g><defs></defs></svg></g></mask></svg></g></mask><linearGradient x1="0" x2="1" y1="0.5" y2="0.5" id="e327876e-4dab-4827-8d03-a7b3227ee04c"><stop stop-color="#ffa62e" offset="0"></stop><stop stop-color="#f71b3d" offset="1"></stop></linearGradient></svg><rect width="395.52" height="49.431039938739055" fill="none" stroke="none" visibility="hidden"></rect></g></svg></g></svg>